<svg xmlns="http://www.w3.org/2000/svg" xmlns:xlink="http://www.w3.org/1999/xlink" width="764.727" height="567.477" viewBox="0 0 764.727 567.477">
  <defs>
    <filter id="Rectangle_12" x="0" y="0" width="764.727" height="567.477" filterUnits="userSpaceOnUse">
      <feOffset dx="-34" dy="3" input="SourceAlpha"/>
      <feGaussianBlur stdDeviation="24" result="blur"/>
      <feFlood flood-opacity="0.161"/>
      <feComposite operator="in" in2="blur"/>
      <feComposite in="SourceGraphic"/>
    </filter>
    <filter id="Rectangle_13" x="366.33" y="179.98" width="302.081" height="279.042" filterUnits="userSpaceOnUse">
      <feOffset dx="-8" dy="3" input="SourceAlpha"/>
      <feGaussianBlur stdDeviation="4.5" result="blur-2"/>
      <feFlood flood-opacity="0.161"/>
      <feComposite operator="in" in2="blur-2"/>
      <feComposite in="SourceGraphic"/>
    </filter>
  </defs>
  <g id="Component_8_1" data-name="Component 8 – 1" transform="translate(106 69)">
    <g transform="matrix(1, 0, 0, 1, -106, -69)" filter="url(#Rectangle_12)">
      <g id="Rectangle_12-2" data-name="Rectangle 12" transform="translate(106 69)" fill="#fff" stroke="#303030" stroke-width="4">
        <rect width="620.727" height="423.477" rx="26" stroke="none"/>
        <rect x="2" y="2" width="616.727" height="419.477" rx="24" fill="none"/>
      </g>
    </g>
    <g transform="matrix(1, 0, 0, 1, -106, -69)" filter="url(#Rectangle_13)">
      <g id="Rectangle_13-2" data-name="Rectangle 13" transform="translate(387.83 190.48)" fill="#fff" stroke="#303030" stroke-width="4">
        <rect width="275.081" height="252.042" rx="26" stroke="none"/>
        <rect x="2" y="2" width="271.081" height="248.042" rx="24" fill="none"/>
      </g>
    </g>
    <g id="Rectangle_14" data-name="Rectangle 14" transform="translate(63.816 121.48)" fill="#fff" stroke="#303030" stroke-width="4">
      <rect width="173.174" height="250.907" rx="26" stroke="none"/>
      <rect x="2" y="2" width="169.174" height="246.907" rx="24" fill="none"/>
    </g>
    <g id="Rectangle_15" data-name="Rectangle 15" transform="translate(35.984 30.654)" fill="#fff" stroke="#303030" stroke-width="4">
      <rect width="103.454" height="38.601" rx="18" stroke="none"/>
      <rect x="2" y="2" width="99.454" height="34.601" rx="16" fill="none"/>
    </g>
    <g id="Rectangle_16" data-name="Rectangle 16" transform="translate(509.401 36.33)" fill="#fff" stroke="#303030" stroke-width="4">
      <rect width="73.093" height="27.248" rx="13.624" stroke="none"/>
      <rect x="2" y="2" width="69.093" height="23.248" rx="11.624" fill="none"/>
    </g>
    <g id="Rectangle_17" data-name="Rectangle 17" transform="translate(368.838 43.142)" fill="#fff" stroke="#303030" stroke-width="4">
      <rect width="52.852" height="13.624" stroke="none"/>
      <rect x="2" y="2" width="48.852" height="9.624" fill="none"/>
    </g>
    <g id="Rectangle_19" data-name="Rectangle 19" transform="translate(290.122 43.142)" fill="#fff" stroke="#303030" stroke-width="4">
      <rect width="64.097" height="13.624" stroke="none"/>
      <rect x="2" y="2" width="60.097" height="9.624" fill="none"/>
    </g>
    <g id="Rectangle_18" data-name="Rectangle 18" transform="translate(437.432 43.142)" fill="#fff" stroke="#303030" stroke-width="4">
      <rect width="59.599" height="13.624" stroke="none"/>
      <rect x="2" y="2" width="55.599" height="9.624" fill="none"/>
    </g>
  </g>
</svg>
