<svg xmlns="http://www.w3.org/2000/svg" width="32.596" height="32.596" viewBox="0 0 32.596 32.596">
  <g id="insta" transform="translate(0 0)">
    <path id="Path_91" data-name="Path 91" d="M16.3,0A16.3,16.3,0,1,1,0,16.3,16.294,16.294,0,0,1,16.3,0Z" transform="translate(0 32.596) rotate(-90)" fill="#fff"/>
    <g id="Group_21" data-name="Group 21" transform="translate(6.696 6.673)">
      <g id="Group_20" data-name="Group 20">
        <path id="Path_88" data-name="Path 88" d="M832.671,175.369a1.126,1.126,0,1,0,1.126,1.126A1.125,1.125,0,0,0,832.671,175.369Z" transform="translate(-817.985 -171.94)" fill="#292929"/>
        <path id="Path_89" data-name="Path 89" d="M826.975,176.928a4.729,4.729,0,1,0,4.73,4.73A4.735,4.735,0,0,0,826.975,176.928Zm0,7.759A3.03,3.03,0,1,1,830,181.658,3.033,3.033,0,0,1,826.975,184.687Z" transform="translate(-817.295 -172.056)" fill="#292929"/>
        <path id="Path_90" data-name="Path 90" d="M830.333,190.869h-7.667A5.775,5.775,0,0,1,816.9,185.1v-7.666a5.775,5.775,0,0,1,5.768-5.769h7.667a5.776,5.776,0,0,1,5.769,5.769V185.1A5.776,5.776,0,0,1,830.333,190.869Zm-7.667-17.4a3.966,3.966,0,0,0-3.961,3.961V185.1a3.966,3.966,0,0,0,3.961,3.961h7.667a3.966,3.966,0,0,0,3.961-3.961v-7.666a3.966,3.966,0,0,0-3.961-3.961Z" transform="translate(-816.898 -171.665)" fill="#292929"/>
      </g>
    </g>
  </g>
</svg>
